<?xml version="1.0" encoding="UTF-8" standalone="no"?>
<svg
   xmlns:dc="http://purl.org/dc/elements/1.1/"
   xmlns:cc="http://creativecommons.org/ns#"
   xmlns:rdf="http://www.w3.org/1999/02/22-rdf-syntax-ns#"
   xmlns:svg="http://www.w3.org/2000/svg"
   xmlns="http://www.w3.org/2000/svg"
   xmlns:xlink="http://www.w3.org/1999/xlink"
   xmlns:sodipodi="http://sodipodi.sourceforge.net/DTD/sodipodi-0.dtd"
   xmlns:inkscape="http://www.inkscape.org/namespaces/inkscape"
   viewBox="0 0 567 547"
   id="svg3006"
   sodipodi:version="0.32"
   inkscape:version="0.46"
   width="526"
   height="695"
   sodipodi:docname="without_alignment.svg"
   inkscape:output_extension="org.inkscape.output.svg.inkscape"
   version="1.0">
  <sodipodi:namedview
     inkscape:window-height="846"
     inkscape:window-width="1434"
     inkscape:pageshadow="2"
     inkscape:pageopacity="0.0"
     guidetolerance="10.0"
     gridtolerance="10.0"
     objecttolerance="10.0"
     borderopacity="1.0"
     bordercolor="#666666"
     pagecolor="#ffffff"
     id="base"
     showgrid="false"
     inkscape:zoom="0.62623261"
     inkscape:cx="146.19233"
     inkscape:cy="282.72929"
     inkscape:window-x="0"
     inkscape:window-y="0"
     inkscape:current-layer="svg3006" />
  <metadata
     id="metadata3635">
    <rdf:RDF>
      <cc:Work
         rdf:about="">
        <dc:format>image/svg+xml</dc:format>
        <dc:type
           rdf:resource="http://purl.org/dc/dcmitype/StillImage" />
      </cc:Work>
    </rdf:RDF>
  </metadata>
  <title
     id="title3008">
plots/muv4/inv_pt/upperR1nlower/09_pT2002000/overlaid.svg
</title>
  <desc
     id="desc3010">
Creator: ROOT Version 5.18/00a
CreationDate: Tue Jun  9 23:16:37 2009
</desc>
  <defs
     id="defs3012">
    <inkscape:perspective
       sodipodi:type="inkscape:persp3d"
       inkscape:vp_x="0 : 526.18109 : 1"
       inkscape:vp_y="0 : 1000 : 0"
       inkscape:vp_z="744.09448 : 526.18109 : 1"
       inkscape:persp3d-origin="372.04724 : 350.78739 : 1"
       id="perspective3637" />
  </defs>
  <g
     id="g5085"
     transform="matrix(1.1772739,0,0,1.1772739,-40.749122,-64.521168)">
    <rect
       id="rect3018"
       height="438"
       width="453"
       y="54"
       x="57"
       style="fill:none;stroke:#000000" />
    <rect
       id="rect3022"
       height="438"
       width="453"
       y="54"
       x="57"
       style="fill:none;stroke:#000000" />
    <path
       id="path3024"
       d="M 57,492 L 147,492 L 147,485 L 152,485 L 152,492 L 211,492 L 211,485 L 215,485 L 215,492 L 238,492 L 238,485 L 252,485 L 252,454 L 256,454 L 256,446 L 261,446 L 261,477 L 265,477 L 265,423 L 270,423 L 270,291 L 279,291 L 279,75 L 283,75 L 283,160 L 288,160 L 288,284 L 293,284 L 293,307 L 297,307 L 297,407 L 302,407 L 302,430 L 306,430 L 306,454 L 311,454 L 311,477 L 315,477 L 315,492 L 333,492 L 333,477 L 338,477 L 338,485 L 342,485 L 342,492 L 420,492 L 420,485 L 424,485 L 424,492 L 510,492"
       style="fill:none;stroke:#ff0000" />
    <path
       id="path3080"
       d="M 57,492 L 510,492"
       style="fill:none;stroke:#000000" />
    <path
       id="path3092"
       d="M 57,479 L 57,492"
       style="fill:none;stroke:#000000" />
    <path
       id="path3094"
       d="M 68,486 L 68,492"
       style="fill:none;stroke:#000000" />
    <path
       id="path3096"
       d="M 79,486 L 79,492"
       style="fill:none;stroke:#000000" />
    <path
       id="path3098"
       d="M 91,486 L 91,492"
       style="fill:none;stroke:#000000" />
    <path
       id="path3100"
       d="M 102,479 L 102,492"
       style="fill:none;stroke:#000000" />
    <path
       id="path3102"
       d="M 113,486 L 113,492"
       style="fill:none;stroke:#000000" />
    <path
       id="path3104"
       d="M 125,486 L 125,492"
       style="fill:none;stroke:#000000" />
    <path
       id="path3106"
       d="M 136,486 L 136,492"
       style="fill:none;stroke:#000000" />
    <path
       id="path3108"
       d="M 147,479 L 147,492"
       style="fill:none;stroke:#000000" />
    <path
       id="path3110"
       d="M 159,486 L 159,492"
       style="fill:none;stroke:#000000" />
    <path
       id="path3112"
       d="M 170,486 L 170,492"
       style="fill:none;stroke:#000000" />
    <path
       id="path3114"
       d="M 181,486 L 181,492"
       style="fill:none;stroke:#000000" />
    <path
       id="path3116"
       d="M 193,479 L 193,492"
       style="fill:none;stroke:#000000" />
    <path
       id="path3118"
       d="M 204,486 L 204,492"
       style="fill:none;stroke:#000000" />
    <path
       id="path3120"
       d="M 215,486 L 215,492"
       style="fill:none;stroke:#000000" />
    <path
       id="path3122"
       d="M 227,486 L 227,492"
       style="fill:none;stroke:#000000" />
    <path
       id="path3124"
       d="M 238,479 L 238,492"
       style="fill:none;stroke:#000000" />
    <path
       id="path3126"
       d="M 249,486 L 249,492"
       style="fill:none;stroke:#000000" />
    <path
       id="path3128"
       d="M 261,486 L 261,492"
       style="fill:none;stroke:#000000" />
    <path
       id="path3130"
       d="M 272,486 L 272,492"
       style="fill:none;stroke:#000000" />
    <path
       id="path3132"
       d="M 283,479 L 283,492"
       style="fill:none;stroke:#000000" />
    <path
       id="path3134"
       d="M 295,486 L 295,492"
       style="fill:none;stroke:#000000" />
    <path
       id="path3136"
       d="M 306,486 L 306,492"
       style="fill:none;stroke:#000000" />
    <path
       id="path3138"
       d="M 317,486 L 317,492"
       style="fill:none;stroke:#000000" />
    <path
       id="path3140"
       d="M 329,479 L 329,492"
       style="fill:none;stroke:#000000" />
    <path
       id="path3142"
       d="M 340,486 L 340,492"
       style="fill:none;stroke:#000000" />
    <path
       id="path3144"
       d="M 351,486 L 351,492"
       style="fill:none;stroke:#000000" />
    <path
       id="path3146"
       d="M 363,486 L 363,492"
       style="fill:none;stroke:#000000" />
    <path
       id="path3148"
       d="M 374,479 L 374,492"
       style="fill:none;stroke:#000000" />
    <path
       id="path3150"
       d="M 386,486 L 386,492"
       style="fill:none;stroke:#000000" />
    <path
       id="path3152"
       d="M 397,486 L 397,492"
       style="fill:none;stroke:#000000" />
    <path
       id="path3154"
       d="M 408,486 L 408,492"
       style="fill:none;stroke:#000000" />
    <path
       id="path3156"
       d="M 420,479 L 420,492"
       style="fill:none;stroke:#000000" />
    <path
       id="path3158"
       d="M 431,486 L 431,492"
       style="fill:none;stroke:#000000" />
    <path
       id="path3160"
       d="M 442,486 L 442,492"
       style="fill:none;stroke:#000000" />
    <path
       id="path3162"
       d="M 454,486 L 454,492"
       style="fill:none;stroke:#000000" />
    <path
       id="path3164"
       d="M 465,479 L 465,492"
       style="fill:none;stroke:#000000" />
    <path
       id="path3166"
       d="M 476,486 L 476,492"
       style="fill:none;stroke:#000000" />
    <path
       id="path3168"
       d="M 488,486 L 488,492"
       style="fill:none;stroke:#000000" />
    <path
       id="path3170"
       d="M 499,486 L 499,492"
       style="fill:none;stroke:#000000" />
    <path
       id="path3172"
       d="M 510,479 L 510,492"
       style="fill:none;stroke:#000000" />
    <text
       id="text3174"
       font-weight="bold"
       font-size="13"
       y="505"
       x="51"
       style="font-size:13px;font-weight:bold;fill:#000000;font-family:Helvetica">-1</text>
    <text
       id="text3176"
       font-weight="bold"
       font-size="13"
       y="505"
       x="90"
       style="font-size:13px;font-weight:bold;fill:#000000;font-family:Helvetica">-0.8</text>
    <text
       id="text3178"
       font-weight="bold"
       font-size="13"
       y="505"
       x="135"
       style="font-size:13px;font-weight:bold;fill:#000000;font-family:Helvetica">-0.6</text>
    <text
       id="text3180"
       font-weight="bold"
       font-size="13"
       y="505"
       x="181"
       style="font-size:13px;font-weight:bold;fill:#000000;font-family:Helvetica">-0.4</text>
    <text
       id="text3182"
       font-weight="bold"
       font-size="13"
       y="505"
       x="226"
       style="font-size:13px;font-weight:bold;fill:#000000;font-family:Helvetica">-0.2</text>
    <text
       id="text3184"
       font-weight="bold"
       font-size="13"
       y="505"
       x="279"
       style="font-size:13px;font-weight:bold;fill:#000000;font-family:Helvetica">0</text>
    <text
       id="text3186"
       font-weight="bold"
       font-size="13"
       y="505"
       x="319"
       style="font-size:13px;font-weight:bold;fill:#000000;font-family:Helvetica">0.2</text>
    <text
       id="text3188"
       font-weight="bold"
       font-size="13"
       y="505"
       x="365"
       style="font-size:13px;font-weight:bold;fill:#000000;font-family:Helvetica">0.4</text>
    <text
       id="text3190"
       font-weight="bold"
       font-size="13"
       y="505"
       x="411"
       style="font-size:13px;font-weight:bold;fill:#000000;font-family:Helvetica">0.6</text>
    <text
       id="text3192"
       font-weight="bold"
       font-size="13"
       y="505"
       x="455"
       style="font-size:13px;font-weight:bold;fill:#000000;font-family:Helvetica">0.8</text>
    <text
       id="text3194"
       font-weight="bold"
       font-size="13"
       y="505"
       x="507"
       style="font-size:13px;font-weight:bold;fill:#000000;font-family:Helvetica">1</text>
    <path
       id="path3196"
       d="M 57,54 L 510,54"
       style="fill:none;stroke:#000000" />
    <path
       id="path3198"
       d="M 57,67 L 57,54"
       style="fill:none;stroke:#000000" />
    <path
       id="path3200"
       d="M 68,61 L 68,54"
       style="fill:none;stroke:#000000" />
    <path
       id="path3202"
       d="M 79,61 L 79,54"
       style="fill:none;stroke:#000000" />
    <path
       id="path3204"
       d="M 91,61 L 91,54"
       style="fill:none;stroke:#000000" />
    <path
       id="path3206"
       d="M 102,67 L 102,54"
       style="fill:none;stroke:#000000" />
    <path
       id="path3208"
       d="M 113,61 L 113,54"
       style="fill:none;stroke:#000000" />
    <path
       id="path3210"
       d="M 125,61 L 125,54"
       style="fill:none;stroke:#000000" />
    <path
       id="path3212"
       d="M 136,61 L 136,54"
       style="fill:none;stroke:#000000" />
    <path
       id="path3214"
       d="M 147,67 L 147,54"
       style="fill:none;stroke:#000000" />
    <path
       id="path3216"
       d="M 159,61 L 159,54"
       style="fill:none;stroke:#000000" />
    <path
       id="path3218"
       d="M 170,61 L 170,54"
       style="fill:none;stroke:#000000" />
    <path
       id="path3220"
       d="M 181,61 L 181,54"
       style="fill:none;stroke:#000000" />
    <path
       id="path3222"
       d="M 193,67 L 193,54"
       style="fill:none;stroke:#000000" />
    <path
       id="path3224"
       d="M 204,61 L 204,54"
       style="fill:none;stroke:#000000" />
    <path
       id="path3226"
       d="M 215,61 L 215,54"
       style="fill:none;stroke:#000000" />
    <path
       id="path3228"
       d="M 227,61 L 227,54"
       style="fill:none;stroke:#000000" />
    <path
       id="path3230"
       d="M 238,67 L 238,54"
       style="fill:none;stroke:#000000" />
    <path
       id="path3232"
       d="M 249,61 L 249,54"
       style="fill:none;stroke:#000000" />
    <path
       id="path3234"
       d="M 261,61 L 261,54"
       style="fill:none;stroke:#000000" />
    <path
       id="path3236"
       d="M 272,61 L 272,54"
       style="fill:none;stroke:#000000" />
    <path
       id="path3238"
       d="M 283,67 L 283,54"
       style="fill:none;stroke:#000000" />
    <path
       id="path3240"
       d="M 295,61 L 295,54"
       style="fill:none;stroke:#000000" />
    <path
       id="path3242"
       d="M 306,61 L 306,54"
       style="fill:none;stroke:#000000" />
    <path
       id="path3244"
       d="M 317,61 L 317,54"
       style="fill:none;stroke:#000000" />
    <path
       id="path3246"
       d="M 329,67 L 329,54"
       style="fill:none;stroke:#000000" />
    <path
       id="path3248"
       d="M 340,61 L 340,54"
       style="fill:none;stroke:#000000" />
    <path
       id="path3250"
       d="M 351,61 L 351,54"
       style="fill:none;stroke:#000000" />
    <path
       style="fill:none;stroke:#000000"
       id="path3252"
       d="M 363,61 L 363,54" />
    <path
       style="fill:none;stroke:#000000"
       id="path3254"
       d="M 374,67 L 374,54" />
    <path
       style="fill:none;stroke:#000000"
       id="path3256"
       d="M 386,61 L 386,54" />
    <path
       style="fill:none;stroke:#000000"
       id="path3258"
       d="M 397,61 L 397,54" />
    <path
       style="fill:none;stroke:#000000"
       id="path3260"
       d="M 408,61 L 408,54" />
    <path
       style="fill:none;stroke:#000000"
       id="path3262"
       d="M 420,67 L 420,54" />
    <path
       style="fill:none;stroke:#000000"
       id="path3264"
       d="M 431,61 L 431,54" />
    <path
       style="fill:none;stroke:#000000"
       id="path3266"
       d="M 442,61 L 442,54" />
    <path
       style="fill:none;stroke:#000000"
       id="path3268"
       d="M 454,61 L 454,54" />
    <path
       style="fill:none;stroke:#000000"
       id="path3270"
       d="M 465,67 L 465,54" />
    <path
       style="fill:none;stroke:#000000"
       id="path3272"
       d="M 476,61 L 476,54" />
    <path
       style="fill:none;stroke:#000000"
       id="path3274"
       d="M 488,61 L 488,54" />
    <path
       style="fill:none;stroke:#000000"
       id="path3276"
       d="M 499,61 L 499,54" />
    <path
       style="fill:none;stroke:#000000"
       id="path3278"
       d="M 510,67 L 510,54" />
    <path
       id="path3280"
       d="M 57,492 L 57,54"
       style="fill:none;stroke:#000000" />
    <path
       id="path3282"
       d="M 70,492 L 57,492"
       style="fill:none;stroke:#000000" />
    <path
       id="path3284"
       d="M 63,477 L 57,477"
       style="fill:none;stroke:#000000" />
    <path
       id="path3286"
       d="M 63,461 L 57,461"
       style="fill:none;stroke:#000000" />
    <path
       id="path3288"
       d="M 63,446 L 57,446"
       style="fill:none;stroke:#000000" />
    <path
       id="path3290"
       d="M 63,430 L 57,430"
       style="fill:none;stroke:#000000" />
    <path
       id="path3292"
       d="M 70,415 L 57,415"
       style="fill:none;stroke:#000000" />
    <path
       id="path3294"
       d="M 63,400 L 57,400"
       style="fill:none;stroke:#000000" />
    <path
       id="path3296"
       d="M 63,384 L 57,384"
       style="fill:none;stroke:#000000" />
    <path
       id="path3298"
       d="M 63,369 L 57,369"
       style="fill:none;stroke:#000000" />
    <path
       id="path3300"
       d="M 63,353 L 57,353"
       style="fill:none;stroke:#000000" />
    <path
       id="path3302"
       d="M 70,338 L 57,338"
       style="fill:none;stroke:#000000" />
    <path
       id="path3304"
       d="M 63,322 L 57,322"
       style="fill:none;stroke:#000000" />
    <path
       id="path3306"
       d="M 63,307 L 57,307"
       style="fill:none;stroke:#000000" />
    <path
       id="path3308"
       d="M 63,291 L 57,291"
       style="fill:none;stroke:#000000" />
    <path
       id="path3310"
       d="M 63,276 L 57,276"
       style="fill:none;stroke:#000000" />
    <path
       id="path3312"
       d="M 70,261 L 57,261"
       style="fill:none;stroke:#000000" />
    <path
       id="path3314"
       d="M 63,245 L 57,245"
       style="fill:none;stroke:#000000" />
    <path
       id="path3316"
       d="M 63,230 L 57,230"
       style="fill:none;stroke:#000000" />
    <path
       id="path3318"
       d="M 63,214 L 57,214"
       style="fill:none;stroke:#000000" />
    <path
       id="path3320"
       d="M 63,199 L 57,199"
       style="fill:none;stroke:#000000" />
    <path
       id="path3322"
       d="M 70,183 L 57,183"
       style="fill:none;stroke:#000000" />
    <path
       id="path3324"
       d="M 63,168 L 57,168"
       style="fill:none;stroke:#000000" />
    <path
       id="path3326"
       d="M 63,152 L 57,152"
       style="fill:none;stroke:#000000" />
    <path
       id="path3328"
       d="M 63,137 L 57,137"
       style="fill:none;stroke:#000000" />
    <path
       id="path3330"
       d="M 63,122 L 57,122"
       style="fill:none;stroke:#000000" />
    <path
       id="path3332"
       d="M 70,106 L 57,106"
       style="fill:none;stroke:#000000" />
    <path
       id="path3334"
       d="M 70,106 L 57,106"
       style="fill:none;stroke:#000000" />
    <path
       id="path3336"
       d="M 63,91 L 57,91"
       style="fill:none;stroke:#000000" />
    <path
       id="path3338"
       d="M 63,75 L 57,75"
       style="fill:none;stroke:#000000" />
    <path
       id="path3340"
       d="M 63,60 L 57,60"
       style="fill:none;stroke:#000000" />
    <text
       id="text3342"
       font-weight="bold"
       font-size="13"
       y="497"
       x="46"
       style="font-size:13px;font-weight:bold;fill:#000000;font-family:Helvetica">0</text>
    <text
       id="text3344"
       font-weight="bold"
       font-size="13"
       y="420"
       x="39"
       style="font-size:13px;font-weight:bold;fill:#000000;font-family:Helvetica">10</text>
    <text
       id="text3346"
       font-weight="bold"
       font-size="13"
       y="343"
       x="39"
       style="font-size:13px;font-weight:bold;fill:#000000;font-family:Helvetica">20</text>
    <text
       id="text3348"
       font-weight="bold"
       font-size="13"
       y="266"
       x="39"
       style="font-size:13px;font-weight:bold;fill:#000000;font-family:Helvetica">30</text>
    <text
       id="text3350"
       font-weight="bold"
       font-size="13"
       y="189"
       x="39"
       style="font-size:13px;font-weight:bold;fill:#000000;font-family:Helvetica">40</text>
    <text
       id="text3352"
       font-weight="bold"
       font-size="13"
       y="111"
       x="39"
       style="font-size:13px;font-weight:bold;fill:#000000;font-family:Helvetica">50</text>
    <path
       id="path3354"
       d="M 510,492 L 510,54"
       style="fill:none;stroke:#000000" />
    <path
       id="path3356"
       d="M 497,492 L 510,492"
       style="fill:none;stroke:#000000" />
    <path
       id="path3358"
       d="M 503,477 L 510,477"
       style="fill:none;stroke:#000000" />
    <path
       id="path3360"
       d="M 503,461 L 510,461"
       style="fill:none;stroke:#000000" />
    <path
       id="path3362"
       d="M 503,446 L 510,446"
       style="fill:none;stroke:#000000" />
    <path
       id="path3364"
       d="M 503,430 L 510,430"
       style="fill:none;stroke:#000000" />
    <path
       id="path3366"
       d="M 497,415 L 510,415"
       style="fill:none;stroke:#000000" />
    <path
       id="path3368"
       d="M 503,400 L 510,400"
       style="fill:none;stroke:#000000" />
    <path
       style="fill:none;stroke:#000000"
       id="path3370"
       d="M 503,384 L 510,384" />
    <path
       style="fill:none;stroke:#000000"
       id="path3372"
       d="M 503,369 L 510,369" />
    <path
       style="fill:none;stroke:#000000"
       id="path3374"
       d="M 503,353 L 510,353" />
    <path
       style="fill:none;stroke:#000000"
       id="path3376"
       d="M 497,338 L 510,338" />
    <path
       style="fill:none;stroke:#000000"
       id="path3378"
       d="M 503,322 L 510,322" />
    <path
       style="fill:none;stroke:#000000"
       id="path3380"
       d="M 503,307 L 510,307" />
    <path
       style="fill:none;stroke:#000000"
       id="path3382"
       d="M 503,291 L 510,291" />
    <path
       style="fill:none;stroke:#000000"
       id="path3384"
       d="M 503,276 L 510,276" />
    <path
       style="fill:none;stroke:#000000"
       id="path3386"
       d="M 497,261 L 510,261" />
    <path
       style="fill:none;stroke:#000000"
       id="path3388"
       d="M 503,245 L 510,245" />
    <path
       style="fill:none;stroke:#000000"
       id="path3390"
       d="M 503,230 L 510,230" />
    <path
       style="fill:none;stroke:#000000"
       id="path3392"
       d="M 503,214 L 510,214" />
    <path
       style="fill:none;stroke:#000000"
       id="path3394"
       d="M 503,199 L 510,199" />
    <path
       style="fill:none;stroke:#000000"
       id="path3396"
       d="M 497,183 L 510,183" />
    <path
       style="fill:none;stroke:#000000"
       id="path3398"
       d="M 503,168 L 510,168" />
    <path
       style="fill:none;stroke:#000000"
       id="path3400"
       d="M 503,152 L 510,152" />
    <path
       style="fill:none;stroke:#000000"
       id="path3402"
       d="M 503,137 L 510,137" />
    <path
       style="fill:none;stroke:#000000"
       id="path3404"
       d="M 503,122 L 510,122" />
    <path
       style="fill:none;stroke:#000000"
       id="path3406"
       d="M 497,106 L 510,106" />
    <path
       style="fill:none;stroke:#000000"
       id="path3408"
       d="M 497,106 L 510,106" />
    <path
       style="fill:none;stroke:#000000"
       id="path3410"
       d="M 503,91 L 510,91" />
    <path
       style="fill:none;stroke:#000000"
       id="path3412"
       d="M 503,75 L 510,75" />
    <path
       style="fill:none;stroke:#000000"
       id="path3414"
       d="M 503,60 L 510,60" />
    <path
       id="path3470"
       d="M 247,492 L 249,492 L 250,491 L 252,491 L 253,490 L 254,489 L 255,488 L 256,487 L 256,486 L 257,484 L 258,483 L 259,481 L 259,478 L 260,476 L 261,472 L 262,469 L 262,465 L 263,460 L 264,454 L 265,448 L 265,442 L 266,434 L 267,426 L 267,417 L 268,407 L 269,397 L 270,386 L 270,374 L 271,361 L 272,348 L 273,335 L 273,321 L 274,307 L 275,293 L 276,279 L 276,265 L 277,252 L 278,239 L 278,227 L 279,216 L 280,206 L 281,197 L 281,190 L 282,184 L 283,180"
       style="fill:none;stroke:#ff0000;stroke-width:3" />
    <path
       id="path3472"
       d="M 283,180 L 284,177 L 284,176 L 285,177 L 286,179 L 287,184 L 287,189 L 288,196 L 289,205 L 289,215 L 290,225 L 291,237 L 292,250 L 292,263 L 293,277 L 294,291 L 295,305 L 295,319 L 296,333 L 297,346 L 298,359 L 298,372 L 299,384 L 300,395 L 300,406 L 301,416 L 302,425 L 303,433 L 303,441 L 304,447 L 305,454 L 306,459 L 306,464 L 307,468 L 308,472 L 309,475 L 309,478 L 310,480 L 311,482 L 311,484 L 312,486 L 313,487 L 314,488 L 314,489 L 315,489 L 316,490 L 317,491 L 319,491"
       style="fill:none;stroke:#ff0000;stroke-width:3" />
    <path
       id="path3474"
       d="M 319,491 L 320,492"
       style="fill:none;stroke:#ff0000;stroke-width:3" />
    <path
       id="path3476"
       d="M 57,492 L 152,492 L 152,485 L 156,485 L 156,492 L 179,492 L 179,485 L 184,485 L 184,492 L 197,492 L 197,477 L 202,477 L 202,492 L 206,492 L 206,485 L 215,485 L 215,492 L 220,492 L 220,485 L 229,485 L 229,469 L 234,469 L 234,477 L 238,477 L 238,461 L 243,461 L 243,469 L 247,469 L 247,446 L 252,446 L 252,438 L 256,438 L 256,384 L 261,384 L 261,322 L 265,322 L 265,338 L 270,338 L 270,222 L 274,222 L 274,330 L 279,330 L 279,376 L 283,376 L 283,438 L 293,438 L 293,322 L 297,322 L 297,407 L 302,407 L 302,438 L 306,438 L 306,415 L 311,415 L 311,461 L 315,461 L 315,438 L 320,438 L 320,446 L 324,446 L 324,469 L 329,469 L 329,485 L 333,485 L 333,477 L 347,477 L 347,485 L 351,485 L 351,492 L 361,492 L 361,477 L 365,477 L 365,492 L 424,492 L 424,485 L 429,485 L 429,492 L 465,492 L 465,485 L 469,485 L 469,492 L 474,492 L 474,485 L 478,485 L 478,492 L 510,492"
       style="fill:none;stroke:#0000ff" />
    <path
       id="path3586"
       d="M 214,489 L 216,489 L 217,488 L 218,487 L 220,487 L 221,486 L 222,485 L 224,484 L 225,483 L 226,482 L 228,480 L 229,479 L 231,477 L 232,475 L 233,473 L 235,471 L 236,469 L 237,467 L 239,464 L 240,462 L 241,459 L 243,456 L 244,453 L 245,450 L 247,446 L 248,443 L 249,439 L 251,436 L 252,432 L 254,428 L 255,424 L 256,421 L 258,417 L 259,413 L 260,410 L 262,406 L 263,403 L 264,400 L 266,396 L 267,394 L 268,391 L 270,389 L 271,386 L 272,385 L 274,383 L 275,382 L 277,381 L 278,380 L 281,380"
       style="fill:none;stroke:#0000ff;stroke-width:3" />
    <path
       id="path3588"
       d="M 281,380 L 282,381 L 283,382 L 285,383 L 286,384 L 287,386 L 289,388 L 290,390 L 291,393 L 293,396 L 294,399 L 295,402 L 297,405 L 298,409 L 300,413 L 301,416 L 302,420 L 304,424 L 305,427 L 306,431 L 308,435 L 309,439 L 310,442 L 312,446 L 313,449 L 314,452 L 316,455 L 317,458 L 318,461 L 320,464 L 321,466 L 323,469 L 324,471 L 325,473 L 327,475 L 328,477 L 329,478 L 331,480 L 332,481 L 333,483 L 335,484 L 336,485 L 337,486 L 339,486 L 340,487 L 341,488 L 343,488 L 344,489 L 346,489 L 347,490"
       style="fill:none;stroke:#0000ff;stroke-width:3" />
    <path
       id="path3590"
       d="M 347,490 L 348,490"
       style="fill:none;stroke:#0000ff;stroke-width:3" />
    <svg
       preserveAspectRatio="none"
       viewBox="0 0 1 1"
       height="8in"
       width="8in"
       id="body"
       baseProfile="full"
       version="1.0"
       sodipodi:version="0.32"
       inkscape:version="0.46" />
    <svg
       version="1.0"
       baseProfile="full"
       id="svg4591"
       width="8in"
       height="8in"
       viewBox="0 0 1 1"
       preserveAspectRatio="none"
       sodipodi:version="0.32"
       inkscape:version="0.46" />
  </g>
  <text
     xml:space="preserve"
     style="font-size:14px;font-style:normal;font-variant:normal;font-weight:normal;font-stretch:normal;text-align:start;line-height:125%;writing-mode:lr-tb;text-anchor:start;fill:#000000;fill-opacity:1;stroke:none;stroke-width:1px;stroke-linecap:butt;stroke-linejoin:miter;stroke-opacity:1;font-family:Bitstream Vera Sans;-inkscape-font-specification:Bitstream Vera Sans"
     x="34.738281"
     y="-76.280869"
     id="text5262"
     sodipodi:linespacing="125%"><tspan
       sodipodi:role="line"
       id="tspan5264"
       x="34.738281"
       y="-76.280869"
       style="font-size:24px">                                           mean    sigma</tspan><tspan
       sodipodi:role="line"
       x="34.738281"
       y="-46.280872"
       style="font-size:24px;fill:#ff0000"
       id="tspan5268">Tracker-only:                      0.0040   0.044</tspan><tspan
       sodipodi:role="line"
       x="34.738281"
       y="-16.28087"
       style="font-size:24px;fill:#0000ff"
       id="tspan5266">With first muon station:  −0.0180   0.108</tspan></text>
  <image
     xlink:href="tmp.png"
     sodipodi:absref="/home/jpivarski/work/hepr8.physics.tamu.edu/talks/2009-06-11_LHCAlignmentWorkshop_practice/tmp.png"
     width="417.16541"
     height="98.093163"
     id="image4608"
     x="82.042137"
     y="544.43292" />
</svg>
